<mxfile host="app.diagrams.net" agent="Mozilla/5.0 (X11; Ubuntu; Linux x86_64; rv:129.0) Gecko/20100101 Firefox/129.0" version="24.7.7" pages="2">
  <diagram name="Top Level Overview" id="6pyfadpBm5F7DHnc36_n">
    <mxGraphModel dx="1364" dy="796" grid="1" gridSize="10" guides="1" tooltips="1" connect="1" arrows="1" fold="1" page="1" pageScale="1" pageWidth="850" pageHeight="1100" math="0" shadow="0">
      <root>
        <mxCell id="0" />
        <mxCell id="1" parent="0" />
        <mxCell id="pEm0hyZMszZMjYgn-LSS-1" value="&lt;h1 style=&quot;margin-top: 0px;&quot;&gt;HeadinCabrillo Robotics RoboSub&lt;br&gt;&lt;/h1&gt;&lt;p&gt;This document shows a high level overview of all systems for planing &lt;br&gt;&lt;/p&gt;" style="text;html=1;whiteSpace=wrap;overflow=hidden;rounded=0;" parent="1" vertex="1">
          <mxGeometry width="410" height="120" as="geometry" />
        </mxCell>
        <mxCell id="pEm0hyZMszZMjYgn-LSS-5" value="Battery Pack" style="rounded=0;whiteSpace=wrap;html=1;" parent="1" vertex="1">
          <mxGeometry x="460" y="840" width="370" height="240" as="geometry" />
        </mxCell>
        <mxCell id="pEm0hyZMszZMjYgn-LSS-7" value="Hydrophone Board Housing" style="rounded=0;whiteSpace=wrap;html=1;" parent="1" vertex="1">
          <mxGeometry x="10" y="840" width="390" height="240" as="geometry" />
        </mxCell>
        <mxCell id="pEm0hyZMszZMjYgn-LSS-9" value="Main Electrical Housing" style="rounded=0;whiteSpace=wrap;html=1;" parent="1" vertex="1">
          <mxGeometry x="20" y="450" width="800" height="300" as="geometry" />
        </mxCell>
        <mxCell id="pEm0hyZMszZMjYgn-LSS-12" value="" style="endArrow=none;html=1;rounded=0;exitX=0.264;exitY=1.003;exitDx=0;exitDy=0;exitPerimeter=0;" parent="1" source="pEm0hyZMszZMjYgn-LSS-9" edge="1">
          <mxGeometry width="50" height="50" relative="1" as="geometry">
            <mxPoint x="300" y="590" as="sourcePoint" />
            <mxPoint x="230" y="840" as="targetPoint" />
            <Array as="points">
              <mxPoint x="230" y="840" />
            </Array>
          </mxGeometry>
        </mxCell>
        <mxCell id="pEm0hyZMszZMjYgn-LSS-13" value="" style="endArrow=none;html=1;rounded=0;entryX=0.763;entryY=1;entryDx=0;entryDy=0;entryPerimeter=0;" parent="1" target="pEm0hyZMszZMjYgn-LSS-9" edge="1">
          <mxGeometry width="50" height="50" relative="1" as="geometry">
            <mxPoint x="630" y="838" as="sourcePoint" />
            <mxPoint x="350" y="660" as="targetPoint" />
          </mxGeometry>
        </mxCell>
        <mxCell id="pEm0hyZMszZMjYgn-LSS-14" value="" style="endArrow=none;html=1;rounded=0;" parent="1" edge="1">
          <mxGeometry width="50" height="50" relative="1" as="geometry">
            <mxPoint x="140" y="450" as="sourcePoint" />
            <mxPoint x="140" y="370" as="targetPoint" />
          </mxGeometry>
        </mxCell>
        <mxCell id="pEm0hyZMszZMjYgn-LSS-15" value="" style="endArrow=none;html=1;rounded=0;" parent="1" edge="1">
          <mxGeometry width="50" height="50" relative="1" as="geometry">
            <mxPoint x="680" y="450" as="sourcePoint" />
            <mxPoint x="680" y="370" as="targetPoint" />
          </mxGeometry>
        </mxCell>
        <mxCell id="pEm0hyZMszZMjYgn-LSS-16" value="Tooling" style="rounded=0;whiteSpace=wrap;html=1;" parent="1" vertex="1">
          <mxGeometry x="80" y="290" width="120" height="80" as="geometry" />
        </mxCell>
        <mxCell id="pEm0hyZMszZMjYgn-LSS-17" value="DVL" style="rounded=0;whiteSpace=wrap;html=1;" parent="1" vertex="1">
          <mxGeometry x="610" y="290" width="120" height="80" as="geometry" />
        </mxCell>
        <mxCell id="pEm0hyZMszZMjYgn-LSS-18" value="" style="endArrow=none;html=1;rounded=0;" parent="1" edge="1">
          <mxGeometry width="50" height="50" relative="1" as="geometry">
            <mxPoint x="435" y="450" as="sourcePoint" />
            <mxPoint x="435" y="370" as="targetPoint" />
          </mxGeometry>
        </mxCell>
        <mxCell id="pEm0hyZMszZMjYgn-LSS-19" value="External Cameras" style="rounded=0;whiteSpace=wrap;html=1;" parent="1" vertex="1">
          <mxGeometry x="365" y="290" width="120" height="80" as="geometry" />
        </mxCell>
      </root>
    </mxGraphModel>
  </diagram>
  <diagram id="d4uq4NoTPH_K1tgktg9s" name="Page-2">
    <mxGraphModel dx="1364" dy="796" grid="1" gridSize="10" guides="1" tooltips="1" connect="1" arrows="1" fold="1" page="1" pageScale="1" pageWidth="850" pageHeight="1100" math="0" shadow="0">
      <root>
        <mxCell id="0" />
        <mxCell id="1" parent="0" />
        <mxCell id="GmWFBfRjllb4To2NCMNu-1" value="&lt;h1 style=&quot;margin-top: 0px;&quot;&gt;HeadinCabrillo Robotics RoboSub&lt;br&gt;&lt;/h1&gt;&lt;p&gt;Overview of electrical box stackup&lt;br&gt;&lt;/p&gt;" style="text;html=1;whiteSpace=wrap;overflow=hidden;rounded=0;" vertex="1" parent="1">
          <mxGeometry width="410" height="120" as="geometry" />
        </mxCell>
        <mxCell id="GmWFBfRjllb4To2NCMNu-12" style="edgeStyle=orthogonalEdgeStyle;rounded=0;orthogonalLoop=1;jettySize=auto;html=1;exitX=1;exitY=0.5;exitDx=0;exitDy=0;fillColor=#d5e8d4;strokeColor=#82b366;" edge="1" parent="1" source="GmWFBfRjllb4To2NCMNu-2">
          <mxGeometry relative="1" as="geometry">
            <mxPoint x="840" y="60" as="targetPoint" />
          </mxGeometry>
        </mxCell>
        <mxCell id="GmWFBfRjllb4To2NCMNu-13" value="Hardware Board" style="edgeLabel;html=1;align=center;verticalAlign=middle;resizable=0;points=[];" vertex="1" connectable="0" parent="GmWFBfRjllb4To2NCMNu-12">
          <mxGeometry x="-0.0808" y="-3" relative="1" as="geometry">
            <mxPoint x="-2" y="-13" as="offset" />
          </mxGeometry>
        </mxCell>
        <mxCell id="GmWFBfRjllb4To2NCMNu-14" style="edgeStyle=orthogonalEdgeStyle;rounded=0;orthogonalLoop=1;jettySize=auto;html=1;fillColor=#d5e8d4;strokeColor=#82b366;" edge="1" parent="1" source="GmWFBfRjllb4To2NCMNu-2">
          <mxGeometry relative="1" as="geometry">
            <mxPoint x="460" y="60" as="targetPoint" />
          </mxGeometry>
        </mxCell>
        <mxCell id="GmWFBfRjllb4To2NCMNu-15" value="Programing Port" style="edgeLabel;html=1;align=center;verticalAlign=middle;resizable=0;points=[];" vertex="1" connectable="0" parent="GmWFBfRjllb4To2NCMNu-14">
          <mxGeometry x="0.0233" y="3" relative="1" as="geometry">
            <mxPoint as="offset" />
          </mxGeometry>
        </mxCell>
        <mxCell id="GmWFBfRjllb4To2NCMNu-2" value="Ethernet Switch" style="rounded=0;whiteSpace=wrap;html=1;fillColor=#008a00;fontColor=#ffffff;strokeColor=#005700;" vertex="1" parent="1">
          <mxGeometry x="570" y="5" width="180" height="110" as="geometry" />
        </mxCell>
        <mxCell id="GmWFBfRjllb4To2NCMNu-3" value="Jetson" style="whiteSpace=wrap;html=1;aspect=fixed;fillColor=#d80073;fontColor=#ffffff;strokeColor=#A50040;" vertex="1" parent="1">
          <mxGeometry x="670" y="170" width="110" height="110" as="geometry" />
        </mxCell>
        <mxCell id="GmWFBfRjllb4To2NCMNu-4" value="DVL" style="whiteSpace=wrap;html=1;aspect=fixed;fillColor=#1ba1e2;fontColor=#ffffff;strokeColor=#006EAF;" vertex="1" parent="1">
          <mxGeometry x="550" y="160" width="80" height="80" as="geometry" />
        </mxCell>
        <mxCell id="GmWFBfRjllb4To2NCMNu-6" style="edgeStyle=orthogonalEdgeStyle;rounded=0;orthogonalLoop=1;jettySize=auto;html=1;entryX=0.106;entryY=1.036;entryDx=0;entryDy=0;entryPerimeter=0;fillColor=#d5e8d4;strokeColor=#82b366;" edge="1" parent="1" source="GmWFBfRjllb4To2NCMNu-4" target="GmWFBfRjllb4To2NCMNu-2">
          <mxGeometry relative="1" as="geometry" />
        </mxCell>
        <mxCell id="GmWFBfRjllb4To2NCMNu-8" style="edgeStyle=orthogonalEdgeStyle;rounded=0;orthogonalLoop=1;jettySize=auto;html=1;exitX=0.5;exitY=0;exitDx=0;exitDy=0;entryX=0.861;entryY=0.991;entryDx=0;entryDy=0;entryPerimeter=0;fillColor=#d5e8d4;strokeColor=#82b366;" edge="1" parent="1" source="GmWFBfRjllb4To2NCMNu-3" target="GmWFBfRjllb4To2NCMNu-2">
          <mxGeometry relative="1" as="geometry" />
        </mxCell>
        <mxCell id="GmWFBfRjllb4To2NCMNu-16" value="Battery 1" style="whiteSpace=wrap;html=1;aspect=fixed;fillColor=#f8cecc;strokeColor=#b85450;" vertex="1" parent="1">
          <mxGeometry x="680" y="830" width="80" height="80" as="geometry" />
        </mxCell>
        <mxCell id="GmWFBfRjllb4To2NCMNu-17" value="Battery 2" style="whiteSpace=wrap;html=1;aspect=fixed;fillColor=#f8cecc;strokeColor=#b85450;" vertex="1" parent="1">
          <mxGeometry x="680" y="930" width="80" height="80" as="geometry" />
        </mxCell>
        <mxCell id="GmWFBfRjllb4To2NCMNu-24" style="edgeStyle=orthogonalEdgeStyle;rounded=0;orthogonalLoop=1;jettySize=auto;html=1;exitX=0;exitY=0.75;exitDx=0;exitDy=0;fillColor=#f8cecc;strokeColor=#b85450;entryX=0.927;entryY=1.017;entryDx=0;entryDy=0;entryPerimeter=0;" edge="1" parent="1" source="GmWFBfRjllb4To2NCMNu-18" target="GmWFBfRjllb4To2NCMNu-30">
          <mxGeometry relative="1" as="geometry">
            <mxPoint x="340" y="1030" as="targetPoint" />
            <Array as="points">
              <mxPoint x="345" y="960" />
              <mxPoint x="345" y="1050" />
              <mxPoint x="239" y="1050" />
            </Array>
          </mxGeometry>
        </mxCell>
        <mxCell id="GmWFBfRjllb4To2NCMNu-25" style="edgeStyle=orthogonalEdgeStyle;rounded=0;orthogonalLoop=1;jettySize=auto;html=1;exitX=0;exitY=0.25;exitDx=0;exitDy=0;fillColor=#e1d5e7;strokeColor=#9673a6;" edge="1" parent="1" source="GmWFBfRjllb4To2NCMNu-18">
          <mxGeometry relative="1" as="geometry">
            <mxPoint x="320" y="880" as="targetPoint" />
          </mxGeometry>
        </mxCell>
        <mxCell id="GmWFBfRjllb4To2NCMNu-18" value="&lt;div align=&quot;left&quot;&gt;&lt;b&gt;Battery Management Boad&lt;/b&gt;&lt;/div&gt;&lt;div align=&quot;left&quot;&gt;&amp;nbsp;-connects to the batteries&lt;/div&gt;&lt;div align=&quot;left&quot;&gt;-Uses MCU+AD+VD to track voltage and display with status lights&lt;/div&gt;&lt;div align=&quot;left&quot;&gt;- Mosfets to shut off/ switch between batteries&lt;/div&gt;&lt;div align=&quot;left&quot;&gt;- Communication with&amp;nbsp; IO board&lt;br&gt;&lt;/div&gt;" style="whiteSpace=wrap;html=1;aspect=fixed;fillColor=#f8cecc;strokeColor=#b85450;" vertex="1" parent="1">
          <mxGeometry x="440" y="840" width="160" height="160" as="geometry" />
        </mxCell>
        <mxCell id="GmWFBfRjllb4To2NCMNu-19" style="edgeStyle=orthogonalEdgeStyle;rounded=0;orthogonalLoop=1;jettySize=auto;html=1;entryX=1.006;entryY=0.188;entryDx=0;entryDy=0;entryPerimeter=0;fillColor=#f8cecc;strokeColor=#b85450;" edge="1" parent="1" source="GmWFBfRjllb4To2NCMNu-16" target="GmWFBfRjllb4To2NCMNu-18">
          <mxGeometry relative="1" as="geometry" />
        </mxCell>
        <mxCell id="GmWFBfRjllb4To2NCMNu-20" style="edgeStyle=orthogonalEdgeStyle;rounded=0;orthogonalLoop=1;jettySize=auto;html=1;entryX=1.025;entryY=0.813;entryDx=0;entryDy=0;entryPerimeter=0;fillColor=#f8cecc;strokeColor=#b85450;" edge="1" parent="1" source="GmWFBfRjllb4To2NCMNu-17" target="GmWFBfRjllb4To2NCMNu-18">
          <mxGeometry relative="1" as="geometry" />
        </mxCell>
        <mxCell id="GmWFBfRjllb4To2NCMNu-26" value="&lt;div&gt;&lt;b&gt;Back Plane&lt;/b&gt;&lt;/div&gt;&lt;div align=&quot;left&quot;&gt;&lt;b&gt;&lt;br&gt;&lt;/b&gt;&lt;/div&gt;" style="rounded=1;whiteSpace=wrap;html=1;movable=0;resizable=0;rotatable=0;deletable=0;editable=0;locked=1;connectable=0;" vertex="1" parent="1">
          <mxGeometry x="10" y="480" width="310" height="550" as="geometry" />
        </mxCell>
        <mxCell id="GmWFBfRjllb4To2NCMNu-27" value="" style="endArrow=none;html=1;rounded=0;entryX=0.75;entryY=0;entryDx=0;entryDy=0;exitX=1;exitY=1;exitDx=0;exitDy=0;fillColor=#f8cecc;strokeColor=#b85450;" edge="1" parent="1" source="GmWFBfRjllb4To2NCMNu-30" target="GmWFBfRjllb4To2NCMNu-26">
          <mxGeometry width="50" height="50" relative="1" as="geometry">
            <mxPoint x="220" y="670" as="sourcePoint" />
            <mxPoint x="270" y="620" as="targetPoint" />
            <Array as="points">
              <mxPoint x="250" y="920" />
            </Array>
          </mxGeometry>
        </mxCell>
        <mxCell id="GmWFBfRjllb4To2NCMNu-31" value="" style="endArrow=none;html=1;rounded=0;entryX=0.75;entryY=0;entryDx=0;entryDy=0;exitX=0.75;exitY=1;exitDx=0;exitDy=0;fillColor=#f8cecc;strokeColor=#b85450;" edge="1" parent="1" source="GmWFBfRjllb4To2NCMNu-30" target="GmWFBfRjllb4To2NCMNu-30">
          <mxGeometry width="50" height="50" relative="1" as="geometry">
            <mxPoint x="243" y="1030" as="sourcePoint" />
            <mxPoint x="243" y="480" as="targetPoint" />
          </mxGeometry>
        </mxCell>
        <mxCell id="GmWFBfRjllb4To2NCMNu-30" value="&lt;div style=&quot;font-size: 8px;&quot;&gt;&lt;font style=&quot;font-size: 8px;&quot;&gt;Power converters&lt;/font&gt;&lt;/div&gt;&lt;div style=&quot;font-size: 8px;&quot;&gt;&lt;font style=&quot;font-size: 8px;&quot;&gt;V_in--&amp;gt;12V&lt;/font&gt;&lt;/div&gt;&lt;div style=&quot;font-size: 8px;&quot;&gt;&lt;font style=&quot;font-size: 8px;&quot;&gt;V_in--&amp;gt;9V&lt;/font&gt;&lt;/div&gt;&lt;div style=&quot;font-size: 8px;&quot;&gt;&lt;font style=&quot;font-size: 8px;&quot;&gt;V_in--&amp;gt;5V&lt;/font&gt;&lt;/div&gt;&lt;div style=&quot;font-size: 8px;&quot;&gt;&lt;font style=&quot;font-size: 8px;&quot;&gt;V_in--&amp;gt;3.3V&lt;/font&gt;&lt;/div&gt;&lt;div style=&quot;font-size: 8px;&quot;&gt;&lt;font style=&quot;font-size: 8px;&quot;&gt;&lt;font style=&quot;font-size: 8px;&quot;&gt;Fusing + Ziner Protection on all buses&lt;/font&gt;&lt;font style=&quot;font-size: 8px;&quot;&gt;&lt;br&gt;&lt;/font&gt;&lt;/font&gt;&lt;/div&gt;" style="rounded=0;whiteSpace=wrap;html=1;fillColor=#f8cecc;strokeColor=#b85450;" vertex="1" parent="1">
          <mxGeometry x="100" y="940" width="150" height="90" as="geometry" />
        </mxCell>
        <mxCell id="GmWFBfRjllb4To2NCMNu-33" value="ESC Bus Kill Switch " style="whiteSpace=wrap;html=1;aspect=fixed;fillColor=#f8cecc;strokeColor=#b85450;" vertex="1" parent="1">
          <mxGeometry x="210" y="850" width="80" height="80" as="geometry" />
        </mxCell>
        <mxCell id="GmWFBfRjllb4To2NCMNu-34" value="Kill Switch Sensor Board" style="whiteSpace=wrap;html=1;aspect=fixed;fillColor=#ffe6cc;strokeColor=#d79b00;" vertex="1" parent="1">
          <mxGeometry x="440" y="730" width="80" height="80" as="geometry" />
        </mxCell>
        <mxCell id="GmWFBfRjllb4To2NCMNu-39" value="" style="endArrow=classic;startArrow=classic;html=1;rounded=0;entryX=0;entryY=0.5;entryDx=0;entryDy=0;fillColor=#ffe6cc;strokeColor=#d79b00;" edge="1" parent="1" target="GmWFBfRjllb4To2NCMNu-34">
          <mxGeometry width="50" height="50" relative="1" as="geometry">
            <mxPoint x="290" y="850" as="sourcePoint" />
            <mxPoint x="340" y="800" as="targetPoint" />
          </mxGeometry>
        </mxCell>
        <mxCell id="GmWFBfRjllb4To2NCMNu-44" style="edgeStyle=orthogonalEdgeStyle;rounded=0;orthogonalLoop=1;jettySize=auto;html=1;fillColor=#f8cecc;strokeColor=#b85450;" edge="1" parent="1" source="GmWFBfRjllb4To2NCMNu-41">
          <mxGeometry relative="1" as="geometry">
            <mxPoint x="240" y="555" as="targetPoint" />
          </mxGeometry>
        </mxCell>
        <mxCell id="GmWFBfRjllb4To2NCMNu-41" value="ESC Board" style="whiteSpace=wrap;html=1;aspect=fixed;" vertex="1" parent="1">
          <mxGeometry x="340" y="510" width="90" height="90" as="geometry" />
        </mxCell>
        <mxCell id="GmWFBfRjllb4To2NCMNu-43" style="edgeStyle=orthogonalEdgeStyle;rounded=0;orthogonalLoop=1;jettySize=auto;html=1;exitX=0;exitY=0.5;exitDx=0;exitDy=0;fillColor=#f8cecc;strokeColor=#b85450;" edge="1" parent="1" source="GmWFBfRjllb4To2NCMNu-42">
          <mxGeometry relative="1" as="geometry">
            <mxPoint x="240" y="655" as="targetPoint" />
          </mxGeometry>
        </mxCell>
        <mxCell id="GmWFBfRjllb4To2NCMNu-42" value="ESC Board" style="whiteSpace=wrap;html=1;aspect=fixed;" vertex="1" parent="1">
          <mxGeometry x="340" y="610" width="90" height="90" as="geometry" />
        </mxCell>
        <mxCell id="GmWFBfRjllb4To2NCMNu-47" value="" style="endArrow=none;dashed=1;html=1;dashPattern=1 3;strokeWidth=2;rounded=0;exitX=0;exitY=0;exitDx=0;exitDy=0;entryX=0.284;entryY=0.007;entryDx=0;entryDy=0;entryPerimeter=0;fillColor=#e51400;strokeColor=#B20000;" edge="1" parent="1" source="GmWFBfRjllb4To2NCMNu-30" target="GmWFBfRjllb4To2NCMNu-26">
          <mxGeometry width="50" height="50" relative="1" as="geometry">
            <mxPoint x="220" y="800" as="sourcePoint" />
            <mxPoint x="270" y="750" as="targetPoint" />
          </mxGeometry>
        </mxCell>
        <mxCell id="GmWFBfRjllb4To2NCMNu-51" value="12V" style="edgeLabel;html=1;align=center;verticalAlign=middle;resizable=0;points=[];" vertex="1" connectable="0" parent="GmWFBfRjllb4To2NCMNu-47">
          <mxGeometry x="-0.2607" relative="1" as="geometry">
            <mxPoint as="offset" />
          </mxGeometry>
        </mxCell>
        <mxCell id="GmWFBfRjllb4To2NCMNu-48" value="" style="endArrow=none;dashed=1;html=1;dashPattern=1 3;strokeWidth=2;rounded=0;exitX=0;exitY=0;exitDx=0;exitDy=0;entryX=0.284;entryY=0.007;entryDx=0;entryDy=0;entryPerimeter=0;fillColor=#f0a30a;strokeColor=#BD7000;" edge="1" parent="1">
          <mxGeometry width="50" height="50" relative="1" as="geometry">
            <mxPoint x="122" y="960" as="sourcePoint" />
            <mxPoint x="120" y="484" as="targetPoint" />
          </mxGeometry>
        </mxCell>
        <mxCell id="GmWFBfRjllb4To2NCMNu-52" value="9V" style="edgeLabel;html=1;align=center;verticalAlign=middle;resizable=0;points=[];" vertex="1" connectable="0" parent="GmWFBfRjllb4To2NCMNu-48">
          <mxGeometry x="-0.5253" y="-4" relative="1" as="geometry">
            <mxPoint as="offset" />
          </mxGeometry>
        </mxCell>
        <mxCell id="GmWFBfRjllb4To2NCMNu-49" value="" style="endArrow=none;dashed=1;html=1;dashPattern=1 3;strokeWidth=2;rounded=0;exitX=0;exitY=0;exitDx=0;exitDy=0;entryX=0.284;entryY=0.007;entryDx=0;entryDy=0;entryPerimeter=0;fillColor=#6d8764;strokeColor=#3A5431;" edge="1" parent="1">
          <mxGeometry width="50" height="50" relative="1" as="geometry">
            <mxPoint x="142" y="960" as="sourcePoint" />
            <mxPoint x="140" y="484" as="targetPoint" />
          </mxGeometry>
        </mxCell>
        <mxCell id="GmWFBfRjllb4To2NCMNu-53" value="5V" style="edgeLabel;html=1;align=center;verticalAlign=middle;resizable=0;points=[];" vertex="1" connectable="0" parent="GmWFBfRjllb4To2NCMNu-49">
          <mxGeometry x="-0.748" y="-5" relative="1" as="geometry">
            <mxPoint as="offset" />
          </mxGeometry>
        </mxCell>
        <mxCell id="GmWFBfRjllb4To2NCMNu-50" value="" style="endArrow=none;dashed=1;html=1;dashPattern=1 3;strokeWidth=2;rounded=0;exitX=0;exitY=0;exitDx=0;exitDy=0;entryX=0.284;entryY=0.007;entryDx=0;entryDy=0;entryPerimeter=0;fillColor=#a0522d;strokeColor=#6D1F00;" edge="1" parent="1">
          <mxGeometry width="50" height="50" relative="1" as="geometry">
            <mxPoint x="162" y="960" as="sourcePoint" />
            <mxPoint x="160" y="484" as="targetPoint" />
          </mxGeometry>
        </mxCell>
        <mxCell id="GmWFBfRjllb4To2NCMNu-54" value="3.3V" style="edgeLabel;html=1;align=center;verticalAlign=middle;resizable=0;points=[];" vertex="1" connectable="0" parent="GmWFBfRjllb4To2NCMNu-50">
          <mxGeometry x="-0.8698" relative="1" as="geometry">
            <mxPoint as="offset" />
          </mxGeometry>
        </mxCell>
        <mxCell id="GmWFBfRjllb4To2NCMNu-56" value="&lt;div&gt;&lt;b&gt;Hardware Board&lt;/b&gt;&lt;/div&gt;&lt;div align=&quot;left&quot;&gt;-Holds a CM4&lt;/div&gt;&lt;div align=&quot;left&quot;&gt;- RP2040 interfaces with thursters&lt;/div&gt;&lt;div align=&quot;left&quot;&gt;- Reads battery management status&lt;/div&gt;&lt;div align=&quot;left&quot;&gt;- Leak detection sensor&lt;/div&gt;&lt;div align=&quot;left&quot;&gt;- IMU&lt;/div&gt;&lt;div align=&quot;left&quot;&gt;- Temperature/ humidity sensor &lt;br&gt;&lt;/div&gt;&lt;div align=&quot;left&quot;&gt;- Pressure Sensor&lt;br&gt;&lt;/div&gt;" style="whiteSpace=wrap;html=1;aspect=fixed;" vertex="1" parent="1">
          <mxGeometry x="40" y="170" width="280" height="280" as="geometry" />
        </mxCell>
      </root>
    </mxGraphModel>
  </diagram>
</mxfile>
